<?xml version="1.0" encoding="UTF-8"?>
<svg id="Layer_1" data-name="Layer 1" xmlns="http://www.w3.org/2000/svg" xmlns:xlink="http://www.w3.org/1999/xlink" viewBox="0 0 31 24">
  <defs>
    <style>
      .cls-1 {
        fill: url(#linear-gradient-4);
      }

      .cls-2 {
        fill: url(#linear-gradient-3);
      }

      .cls-2, .cls-3, .cls-4 {
        isolation: isolate;
        opacity: .5;
      }

      .cls-3 {
        fill: url(#linear-gradient-2);
      }

      .cls-4 {
        fill: url(#linear-gradient);
      }
    </style>
    <linearGradient id="linear-gradient" x1="36.19" y1="20.88" x2="1.89" y2="-5.2" gradientTransform="translate(0 21.31) scale(1 -1)" gradientUnits="userSpaceOnUse">
      <stop offset="0" stop-color="#db27e0"/>
      <stop offset=".17" stop-color="#cc25df"/>
      <stop offset=".48" stop-color="#a422dc"/>
      <stop offset=".91" stop-color="#651ed8"/>
      <stop offset="1" stop-color="#571dd8"/>
    </linearGradient>
    <linearGradient id="linear-gradient-2" x1="30.17" y1="28.8" x2="-4.13" y2="2.72" xlink:href="#linear-gradient"/>
    <linearGradient id="linear-gradient-3" x1="38.7" y1="17.58" x2="4.41" y2="-8.51" xlink:href="#linear-gradient"/>
    <linearGradient id="linear-gradient-4" x1="21.58" y1="25" x2=".86" y2="-4.29" xlink:href="#linear-gradient"/>
  </defs>
  <path class="cls-4" d="M12.57,20.1l.13.25-1.92,3.65h-4.79l3.38-6.46c.24-.43.51-.98.82-1.6.07.09.15.2.23.33.41.62.84,1.43,1.26,2.22.29.54.58,1.1.88,1.61Z"/>
  <path class="cls-3" d="M10.46,8.61c-.43-.82-.78-1.57-1.08-2.12l-.52-.99h3.77c1.46,0,1.53,1.3,1.53,1.55s-.07,1.55-1.53,1.55h-2.16,0Z"/>
  <path class="cls-2" d="M26.81,17.54l3.38,6.46h-4.79l-2.36-4.48c-1.26-2.22-2.56-5.37-3.97-5.37-.93,0-1.56-.03-2.05.04l-.02-.04c1.35-.82,2.41-1.96,3.09-3.35.34-.7.58-1.46.71-2.24.51-.8,1.16-2.06,2.25-4.05L25.41.03h4.79l-3.38,6.46c-.72,1.3-1.71,3.73-3.35,5.54,1.64,1.78,2.63,4.2,3.35,5.5Z"/>
  <path class="cls-1" d="M20.96,24h-4.79l-2.36-4.51c-1.3-2.22-2.56-5.37-3.97-5.37h-2.8c-1.54,0-2.8,1.26-2.8,2.8v7.08H0v-7.08C0,13.03,3.15,9.88,7.04,9.88h5.71c3.73,0,3.73-5.64,0-5.64H0V0h12.75c7.73,0,9.78,10.7,2.67,13.61l5.54,10.39h0Z"/>
</svg>